Coordinates
version=1
nRows=8
nColumns=28
inDegrees=yes

Units are S.I. units (second, meters, Newtons, ...)
Angles are in degrees.

endheader
time	pelvis_tilt	pelvis_list	pelvis_rotation	pelvis_tx	pelvis_ty	pelvis_tz	hip_flexion_r	hip_adduction_r	hip_rotation_r	knee_angle_r	ankle_angle_r	subtalar_angle_r	mtp_angle_r	hip_flexion_l	hip_adduction_l	hip_rotation_l	knee_angle_l	socket_flexion	socket_adduction	socket_rotation	socket_tx	socket_ty	socket_tz	foot_flex	lumbar_extension	lumbar_bending	lumbar_rotation
      0.00000000	      2.17542908	     -0.99991125	     -0.54011398	     -0.91810788	      0.99588922	      0.29422303	    -26.02508851	      4.47077101	    -10.43756286	     -5.45796149	     13.93154791	      7.18692417	     14.55494957	     26.32707451	      3.85323163	      8.47232405	     -3.07268845	      2.11913539	     -2.50713827	     -3.54643176	      0.00000000	      0.00026192	      0.00000000	      1.06591948	    -14.33783672	      0.47244662	      3.07976543
      0.00416667	      2.10055173	     -1.02955968	     -0.52238243	     -0.91240626	      0.99506814	      0.29385185	    -26.14344300	      4.48219080	    -10.38140375	     -5.68275649	     13.87498648	      7.18230937	     14.55305628	     26.15472619	      3.91739698	      8.51615334	     -3.11266276	      2.09575865	     -2.56360927	     -3.50090308	      0.00000000	     -0.00013348	      0.00000000	      0.96454356	    -14.18752233	      0.47614559	      3.07848561
      0.00833333	      2.05321176	     -1.08987347	     -0.58681200	     -0.90669215	      0.99434543	      0.29349784	    -26.08920919	      4.43436277	    -10.46623769	     -6.29256375	     13.61825496	      7.08474343	     14.54574286	     25.90377906	      3.90429470	      8.53059976	     -3.05977545	      2.04979279	     -2.63056912	     -3.32196860	      0.00000000	     -0.00068890	      0.00000000	      0.40526962	    -14.15791277	      0.52045071	      3.08819984
      0.01250000	      1.98338511	     -1.11797394	     -0.57288175	     -0.90051131	      0.99352326	      0.29307945	    -26.19774867	      4.43157242	    -10.40639085	     -6.58563845	     13.54957518	      7.07463139	     14.54887318	     25.69005927	      3.97326498	      8.58167117	     -3.09947352	      2.01702679	     -2.70025200	     -3.24513698	      0.00000000	     -0.00119964	      0.00000000	      0.30380694	    -13.98706387	      0.53566004	      3.09711150
      0.01666667	      1.94444165	     -1.17933836	     -0.69506348	     -0.89444739	      0.99282136	      0.29275541	    -26.08430911	      4.32998377	    -10.54728900	     -7.36542424	     13.25682697	      6.96600236	     14.58495918	     25.40340094	      3.93857053	      8.49499620	     -3.02662944	      2.00288713	     -2.77343230	     -3.00811517	      0.00000000	     -0.00185136	      0.00000000	     -0.21901392	    -13.97848154	      0.58031325	      3.16509559
      0.02083333	      1.91100312	     -1.03027038	     -1.03764715	     -0.88778240	      0.99226259	      0.29285724	    -25.99937661	      3.91669305	    -10.65222787	     -8.14370157	     13.16621619	      7.41388481	     15.32767437	     25.01331591	      4.00946040	      7.74693979	     -2.85110812	      2.02794374	     -2.88729992	     -2.42521996	      0.00000000	     -0.00239890	      0.00000000	     -0.48402555	    -13.87085216	      0.27962840	      3.67964256
      0.02500000	      1.85974612	     -1.06091423	     -1.02419101	     -0.88130980	      0.99151067	      0.29239434	    -26.02496070	      3.87909196	    -10.65690292	     -8.65206475	     12.90736455	      7.34839251	     15.35633295	     24.76045944	      4.07536809	      7.83153842	     -2.90815465	      1.95543736	     -2.95464614	     -2.26487924	      0.00000000	     -0.00307837	      0.00000000	     -0.83523596	    -13.78221631	      0.28817430	      3.65018564
      0.02916667	      1.80300342	     -1.08036629	     -1.04451959	     -0.87479638	      0.99082209	      0.29196548	    -26.01038303	      3.80669410	    -10.66198537	     -9.21688062	     12.63320536	      7.27045127	     15.39099824	     24.51694385	      4.13450864	      7.88713135	     -2.97315386	      1.92154864	     -3.02609522	     -2.09836174	      0.00000000	     -0.00377891	      0.00000000	     -1.14879994	    -13.69544294	      0.28041444	      3.63590725
